<svg xmlns="http://www.w3.org/2000/svg" viewBox="0 0 1280 800" role="img" aria-labelledby="title desc">
  <title id="title">NIDA Energy management screenshot</title>
  <desc id="desc">A stylized portfolio screenshot placeholder for the NIDA Energy project management view.</desc>
  <defs>
    <linearGradient id="bg" x1="0" y1="0" x2="1" y2="1">
      <stop offset="0%" stop-color="#111827"/>
      <stop offset="100%" stop-color="#0f172a"/>
    </linearGradient>
    <linearGradient id="accent" x1="0" y1="0" x2="1" y2="0">
      <stop offset="0%" stop-color="#22c55e"/>
      <stop offset="100%" stop-color="#84cc16"/>
    </linearGradient>
  </defs>
  <rect width="1280" height="800" rx="40" fill="url(#bg)"/>
  <rect x="70" y="70" width="1140" height="660" rx="30" fill="#0b1220" stroke="#263244" stroke-width="4"/>
  <rect x="102" y="110" width="1076" height="74" rx="20" fill="#111827" stroke="#273244"/>
  <text x="140" y="158" fill="#e5e7eb" font-size="30" font-family="Arial, Helvetica, sans-serif" font-weight="700">Management console</text>
  <rect x="102" y="214" width="460" height="472" rx="24" fill="#111827" stroke="#273244"/>
  <rect x="596" y="214" width="582" height="220" rx="24" fill="#111827" stroke="#273244"/>
  <rect x="596" y="466" width="582" height="220" rx="24" fill="#111827" stroke="#273244"/>
  <rect x="140" y="256" width="380" height="72" rx="18" fill="#1f2937"/>
  <rect x="140" y="352" width="380" height="72" rx="18" fill="#1f2937"/>
  <rect x="140" y="448" width="380" height="72" rx="18" fill="#1f2937"/>
  <rect x="140" y="544" width="380" height="72" rx="18" fill="#1f2937"/>
  <rect x="636" y="262" width="170" height="120" rx="22" fill="#0f172a"/>
  <rect x="826" y="262" width="170" height="120" rx="22" fill="#0f172a"/>
  <rect x="1016" y="262" width="130" height="120" rx="22" fill="#0f172a"/>
  <path d="M 620 592 C 700 544, 760 560, 830 502 C 900 444, 960 470, 1066 410" fill="none" stroke="url(#accent)" stroke-width="12" stroke-linecap="round"/>
  <text x="640" y="328" fill="#e5e7eb" font-size="24" font-family="Arial, Helvetica, sans-serif" font-weight="700">Process states</text>
  <text x="640" y="354" fill="#94a3b8" font-size="18" font-family="Arial, Helvetica, sans-serif">Clean status visibility for energy operations</text>
  <text x="640" y="522" fill="#e5e7eb" font-size="24" font-family="Arial, Helvetica, sans-serif" font-weight="700">Scalable architecture</text>
  <text x="640" y="548" fill="#94a3b8" font-size="18" font-family="Arial, Helvetica, sans-serif">Built to support future workflow expansion</text>
</svg>