<svg xmlns="http://www.w3.org/2000/svg" viewBox="0 0 1280 800" role="img" aria-labelledby="title desc">
  <title id="title">PDF Utils overview screenshot</title>
  <desc id="desc">A stylized portfolio screenshot placeholder for the PDF Utils project.</desc>
  <defs>
    <linearGradient id="bg" x1="0" y1="0" x2="1" y2="1">
      <stop offset="0%" stop-color="#0b1120"/>
      <stop offset="100%" stop-color="#172554"/>
    </linearGradient>
    <linearGradient id="accent" x1="0" y1="0" x2="1" y2="0">
      <stop offset="0%" stop-color="#38bdf8"/>
      <stop offset="100%" stop-color="#60a5fa"/>
    </linearGradient>
  </defs>
  <rect width="1280" height="800" rx="40" fill="url(#bg)"/>
  <rect x="62" y="62" width="1156" height="676" rx="28" fill="#09111f" stroke="#24324b" stroke-width="4"/>
  <rect x="100" y="100" width="1080" height="76" rx="20" fill="#111827" stroke="#273244"/>
  <text x="138" y="149" fill="#e5e7eb" font-size="30" font-family="Arial, Helvetica, sans-serif" font-weight="700">PDF Utils</text>
  <rect x="100" y="208" width="1060" height="520" rx="28" fill="#0f172a" stroke="#273244"/>
  <rect x="136" y="246" width="340" height="108" rx="22" fill="#111827"/>
  <rect x="136" y="382" width="340" height="108" rx="22" fill="#111827"/>
  <rect x="136" y="518" width="340" height="174" rx="22" fill="#111827"/>
  <rect x="516" y="246" width="604" height="174" rx="22" fill="#111827"/>
  <rect x="516" y="446" width="604" height="292" rx="22" fill="#111827"/>
  <rect x="170" y="286" width="170" height="18" rx="9" fill="url(#accent)"/>
  <rect x="170" y="322" width="220" height="14" rx="7" fill="#334155"/>
  <rect x="170" y="418" width="150" height="18" rx="9" fill="url(#accent)"/>
  <rect x="170" y="454" width="240" height="14" rx="7" fill="#334155"/>
  <path d="M 560 344 L 636 286 L 712 326 L 790 252 L 876 302 L 964 236 L 1052 278" fill="none" stroke="url(#accent)" stroke-width="12" stroke-linecap="round" stroke-linejoin="round"/>
  <rect x="552" y="500" width="140" height="160" rx="20" fill="#1d4ed8" opacity="0.9"/>
  <rect x="722" y="468" width="140" height="192" rx="20" fill="#2563eb" opacity="0.9"/>
  <rect x="892" y="526" width="140" height="134" rx="20" fill="#38bdf8" opacity="0.9"/>
  <text x="554" y="676" fill="#dbeafe" font-size="22" font-family="Arial, Helvetica, sans-serif" font-weight="700">Convert, merge, split, and extract</text>
  <text x="554" y="704" fill="#93c5fd" font-size="18" font-family="Arial, Helvetica, sans-serif">Fast PDF workflows with a focused UI</text>
</svg>