<svg xmlns="http://www.w3.org/2000/svg" viewBox="0 0 1280 800" role="img" aria-labelledby="title desc">
  <title id="title">PDF Utils tools screenshot</title>
  <desc id="desc">A stylized portfolio screenshot placeholder for the PDF Utils tools view.</desc>
  <defs>
    <linearGradient id="bg" x1="0" y1="0" x2="1" y2="1">
      <stop offset="0%" stop-color="#0f172a"/>
      <stop offset="100%" stop-color="#111827"/>
    </linearGradient>
    <linearGradient id="accent" x1="0" y1="0" x2="1" y2="0">
      <stop offset="0%" stop-color="#f59e0b"/>
      <stop offset="100%" stop-color="#fb7185"/>
    </linearGradient>
  </defs>
  <rect width="1280" height="800" rx="40" fill="url(#bg)"/>
  <rect x="76" y="76" width="1128" height="648" rx="30" fill="#09111f" stroke="#24324b" stroke-width="4"/>
  <rect x="114" y="118" width="1040" height="68" rx="18" fill="#111827" stroke="#273244"/>
  <text x="152" y="161" fill="#e5e7eb" font-size="28" font-family="Arial, Helvetica, sans-serif" font-weight="700">Utility toolbox</text>
  <rect x="114" y="220" width="488" height="458" rx="24" fill="#111827" stroke="#273244"/>
  <rect x="628" y="220" width="526" height="458" rx="24" fill="#111827" stroke="#273244"/>
  <rect x="150" y="262" width="420" height="54" rx="16" fill="#1f2937"/>
  <rect x="150" y="330" width="420" height="54" rx="16" fill="#1f2937"/>
  <rect x="150" y="398" width="420" height="54" rx="16" fill="#1f2937"/>
  <rect x="150" y="466" width="420" height="54" rx="16" fill="#1f2937"/>
  <rect x="150" y="534" width="420" height="54" rx="16" fill="#1f2937"/>
  <path d="M 670 316 L 742 276 L 814 304 L 882 260 L 954 286 L 1030 246 L 1110 290" fill="none" stroke="url(#accent)" stroke-width="12" stroke-linecap="round" stroke-linejoin="round"/>
  <rect x="680" y="388" width="410" height="48" rx="16" fill="#0f172a"/>
  <rect x="680" y="456" width="166" height="166" rx="22" fill="#1d4ed8"/>
  <rect x="864" y="456" width="226" height="166" rx="22" fill="#312e81"/>
  <text x="680" y="660" fill="#dbeafe" font-size="22" font-family="Arial, Helvetica, sans-serif" font-weight="700">PDF processing, conversion, and page tools</text>
  <text x="680" y="688" fill="#93c5fd" font-size="18" font-family="Arial, Helvetica, sans-serif">Designed for everyday document workflows</text>
</svg>