<svg xmlns="http://www.w3.org/2000/svg" viewBox="0 0 1280 800" role="img" aria-labelledby="title desc">
  <title id="title">Japanese Tools study screenshot</title>
  <desc id="desc">A stylized portfolio screenshot placeholder for the Japanese Tools study view.</desc>
  <defs>
    <linearGradient id="bg" x1="0" y1="0" x2="1" y2="1">
      <stop offset="0%" stop-color="#0f172a"/>
      <stop offset="100%" stop-color="#1e293b"/>
    </linearGradient>
    <linearGradient id="accent" x1="0" y1="0" x2="1" y2="0">
      <stop offset="0%" stop-color="#facc15"/>
      <stop offset="100%" stop-color="#f97316"/>
    </linearGradient>
  </defs>
  <rect width="1280" height="800" rx="40" fill="url(#bg)"/>
  <rect x="72" y="72" width="1136" height="656" rx="30" fill="#09111f" stroke="#273244" stroke-width="4"/>
  <rect x="110" y="112" width="1060" height="70" rx="18" fill="#111827" stroke="#273244"/>
  <text x="150" y="156" fill="#e5e7eb" font-size="28" font-family="Arial, Helvetica, sans-serif" font-weight="700">Vocabulary and reading practice</text>
  <rect x="110" y="214" width="490" height="472" rx="24" fill="#111827" stroke="#273244"/>
  <rect x="628" y="214" width="542" height="472" rx="24" fill="#111827" stroke="#273244"/>
  <rect x="146" y="260" width="418" height="62" rx="16" fill="#1f2937"/>
  <rect x="146" y="342" width="418" height="62" rx="16" fill="#1f2937"/>
  <rect x="146" y="424" width="418" height="62" rx="16" fill="#1f2937"/>
  <rect x="146" y="506" width="418" height="62" rx="16" fill="#1f2937"/>
  <path d="M 672 314 L 760 274 L 846 312 L 930 262 L 1014 304 L 1102 250" fill="none" stroke="url(#accent)" stroke-width="12" stroke-linecap="round" stroke-linejoin="round"/>
  <rect x="672" y="388" width="472" height="144" rx="22" fill="#0f172a"/>
  <rect x="672" y="558" width="472" height="72" rx="22" fill="#0f172a"/>
  <text x="672" y="652" fill="#fde68a" font-size="22" font-family="Arial, Helvetica, sans-serif" font-weight="700">Kanji, OCR, and sentence breakdown in one place</text>
  <text x="672" y="680" fill="#fb923c" font-size="18" font-family="Arial, Helvetica, sans-serif">Focused on quick daily language study</text>
</svg>